<svg xmlns="http://www.w3.org/2000/svg" viewBox="0 0 483.66 171.84"><defs><style>.cls-1{fill:#d42229;}.cls-2{fill:#ffffff;}</style></defs><title>sushikoologo</title><g id="Layer_2" data-name="Layer 2"><g id="Layer_1-2" data-name="Layer 1"><path class="cls-1" d="M394.11,0c-31.52,0-59.21,15.64-75.16,39.25a82.23,82.23,0,0,1,11.61-5.37q3.58-1.32,7.3-2.33,12.58-3.39,21.36-3.39,2.42,0,2.42,2.21Q351.92,50.87,345,84.77c.2-.32.43-.65.7-1q37.47-60.15,52.27-60.15a3.45,3.45,0,0,1,3,1.73,11.22,11.22,0,0,1,1.38,5q-5.94,0-14.38,8-4.42,4.43-7.81,8.09t-9.06,11q-7.19,9.27-18,23.78,5.54,3.73,20.74,39.41a162.33,162.33,0,0,0,12.31,23.65Q393,155,398.08,155a6.24,6.24,0,0,0,5.53-2.63c.55,0,.83.23.83.69a5.28,5.28,0,0,1-.69,2.07,10.27,10.27,0,0,1-7.47,4.56q-6.91,0-14-7.4a79.71,79.71,0,0,1-12.72-17.91q-5.6-10.51-10.44-21.09t-8.71-18q-3.82-7.31-6-7.39c-.77,3.88-1.51,7.88-2.23,12q-3,18.11-3,26.13c0,1.2-.71,1.8-2.12,1.8q-4.54,0-4.54-11.06A203.87,203.87,0,0,1,339,64.95q6.59-25.16,14.61-33.6-15.26,2-26.46,8.09a54.51,54.51,0,0,0-8.67,5.88q-7.72,6.22-7.72,13.55,0,3.6,3,3.59-.61,1.94-3.33,1.94a6.64,6.64,0,0,1-2.86-.65,82.75,82.75,0,0,0-3,22.17c0,47.45,40.09,85.92,89.54,85.92s89.55-38.47,89.55-85.92S443.57,0,394.11,0Zm81.72,74.9a19.38,19.38,0,0,1-6.64-1.38,99.81,99.81,0,0,1-4,26.68,67.63,67.63,0,0,1-10.79,22.47q-6.92,9.06-14.66,9.06-17,0-17-23.37a57.81,57.81,0,0,1,6.63-26.27,51.3,51.3,0,0,1,4.26-7,16,16,0,0,1-2.82.2,25.57,25.57,0,0,1-7.51-1.73,99.64,99.64,0,0,1-4,26.68,67.45,67.45,0,0,1-10.79,22.47q-6.91,9.06-14.65,9.06-17,0-17-23.37a57.76,57.76,0,0,1,6.64-26.27q8.43-16.6,20-16.59a4.48,4.48,0,0,1,2.77.83,4.26,4.26,0,0,1,1.52,2.49q-8.71,0-15.07,14a66.09,66.09,0,0,0-6.36,27.52q0,16.46,9,16.45,5.12,0,10.65-7.81t9.2-20.53a92.16,92.16,0,0,0,3.66-25.58V71.17a24.07,24.07,0,0,1-7.05-6.92q-2.76-4.15-2.77-6.08a5.16,5.16,0,0,1,1.73-3.67,5,5,0,0,1,3.52-1.73q2.63,0,5.12,4.7a34.53,34.53,0,0,1,3.46,10.65,17.75,17.75,0,0,0,7.53,2.9,21.12,21.12,0,0,0,6.73-.06q5.62-5.46,12.28-5.47a4.47,4.47,0,0,1,2.77.83,4.29,4.29,0,0,1,1.52,2.49q-8.71,0-15.07,14a66,66,0,0,0-6.36,27.52q0,16.46,9,16.45,5.12,0,10.65-7.81t9.19-20.53a92,92,0,0,0,3.67-25.58V71.17a23.94,23.94,0,0,1-7.05-6.92Q455,60.11,455,58.17a5.15,5.15,0,0,1,1.73-3.67,5,5,0,0,1,3.52-1.73q2.63,0,5.12,4.7a34.53,34.53,0,0,1,3.46,10.65c2.85,1.93,5.37,2.9,7.53,2.9a10.44,10.44,0,0,0,5.19-1.11,5,5,0,0,1-1.38,3.46A5.52,5.52,0,0,1,475.84,74.9Z"/><path class="cls-2" d="M21.24,122.3q7.52,0,11.15-2A6.7,6.7,0,0,0,36,114a8.41,8.41,0,0,0-3.57-7.13q-3.56-2.64-11.74-5.94-4-1.58-7.59-3.23A26.55,26.55,0,0,1,6.86,93.8a17,17,0,0,1-4.22-5.41A17.27,17.27,0,0,1,1.06,80.6,17.48,17.48,0,0,1,7.79,66.15q6.73-5.34,18.34-5.34a51.84,51.84,0,0,1,5.8.33q2.9.33,5.41.79t4.42,1q1.91.53,3,.92L42.49,74.4a31.07,31.07,0,0,0-6.2-2.18A40.08,40.08,0,0,0,26.13,71.1a18.79,18.79,0,0,0-9,2,6.78,6.78,0,0,0-3.83,6.4,8.72,8.72,0,0,0,.86,4,9.15,9.15,0,0,0,2.64,3.1,21.76,21.76,0,0,0,4.42,2.57q2.64,1.19,6.34,2.51,4.88,1.85,8.71,3.63a27.24,27.24,0,0,1,6.53,4.16A16,16,0,0,1,47,105.21a20.87,20.87,0,0,1,1.45,8.25q0,9.5-7.06,14.38t-20.12,4.88q-9.1,0-14.25-1.52a73.17,73.17,0,0,1-7-2.31l2.24-10.56q2.11.79,6.73,2.37A38.72,38.72,0,0,0,21.24,122.3Z"/><path class="cls-2" d="M118.76,129.16q-4.23,1.06-11.15,2.24a96,96,0,0,1-16,1.19,34,34,0,0,1-13.33-2.31,21.48,21.48,0,0,1-8.71-6.53,26.5,26.5,0,0,1-4.75-10,51.84,51.84,0,0,1-1.45-12.73V62.52H75.61V98.42q0,12.54,4,17.95t13.33,5.41c1.32,0,2.68,0,4.09-.13s2.72-.2,4-.33,2.35-.26,3.36-.4a9.94,9.94,0,0,0,2.18-.46V62.52h12.27Z"/><path class="cls-2" d="M155.84,122.3q7.53,0,11.15-2a6.7,6.7,0,0,0,3.63-6.33,8.41,8.41,0,0,0-3.56-7.13q-3.56-2.64-11.74-5.94-4-1.58-7.59-3.23a26.52,26.52,0,0,1-6.27-3.89,17,17,0,0,1-4.22-5.41,17.27,17.27,0,0,1-1.58-7.79,17.48,17.48,0,0,1,6.73-14.45q6.73-5.34,18.34-5.34a51.84,51.84,0,0,1,5.8.33q2.9.33,5.41.79t4.42,1q1.91.53,3,.92L177.08,74.4a31,31,0,0,0-6.2-2.18,40.08,40.08,0,0,0-10.16-1.12,18.78,18.78,0,0,0-9,2,6.78,6.78,0,0,0-3.83,6.4,8.71,8.71,0,0,0,.86,4,9.15,9.15,0,0,0,2.64,3.1,21.79,21.79,0,0,0,4.42,2.57q2.64,1.19,6.34,2.51,4.88,1.85,8.71,3.63a27.21,27.21,0,0,1,6.53,4.16,16,16,0,0,1,4.16,5.74,20.91,20.91,0,0,1,1.45,8.25q0,9.5-7.06,14.38t-20.12,4.88q-9.1,0-14.25-1.52a73.17,73.17,0,0,1-7-2.31l2.24-10.56q2.11.79,6.73,2.37A38.73,38.73,0,0,0,155.84,122.3Z"/><path class="cls-2" d="M198.73,131.14V30.85L211,28.74v35.1a43,43,0,0,1,15-2.77,34.77,34.77,0,0,1,13.59,2.31,21.27,21.27,0,0,1,8.64,6.46,25.05,25.05,0,0,1,4.55,10,57.85,57.85,0,0,1,1.32,12.8v38.53H241.88V95.25A58.8,58.8,0,0,0,241,84.43a18.34,18.34,0,0,0-2.84-7.26,11.25,11.25,0,0,0-5.28-4,23.22,23.22,0,0,0-8.18-1.25,33.09,33.09,0,0,0-4.09.26q-2.11.27-4,.59t-3.43.73a20.35,20.35,0,0,0-2.18.66v57Z"/><path class="cls-2" d="M280.14,50.12a7.88,7.88,0,0,1-5.61-2.18,7.68,7.68,0,0,1-2.31-5.87,7.69,7.69,0,0,1,2.31-5.87,8.31,8.31,0,0,1,11.22,0,7.7,7.7,0,0,1,2.31,5.87,7.69,7.69,0,0,1-2.31,5.87A7.88,7.88,0,0,1,280.14,50.12Zm6.21,81H274.07V62.52h12.27Z"/></g></g></svg>